<?xml version="1.0" encoding="UTF-8" standalone="no"?>
<!-- Created with Inkscape (http://www.inkscape.org/) -->

<svg
   version="1.1"
   id="svg5537"
   width="880"
   height="880"
   viewBox="0 0 880 880"
   sodipodi:docname="man-surfing-on-internet-publicdomainvectors.org.svg"
   inkscape:version="1.2 (dc2aedaf03, 2022-05-15)"
   xmlns:inkscape="http://www.inkscape.org/namespaces/inkscape"
   xmlns:sodipodi="http://sodipodi.sourceforge.net/DTD/sodipodi-0.dtd"
   xmlns="http://www.w3.org/2000/svg"
   xmlns:svg="http://www.w3.org/2000/svg">
  <defs
     id="defs5541">
    <clipPath
       clipPathUnits="userSpaceOnUse"
       id="clipPath5553">
      <path
         d="M 0,660 H 660 V 0 H 0 Z"
         id="path5551" />
    </clipPath>
  </defs>
  <sodipodi:namedview
     id="namedview5539"
     pagecolor="#ffffff"
     bordercolor="#000000"
     borderopacity="0.25"
     inkscape:showpageshadow="2"
     inkscape:pageopacity="0.0"
     inkscape:pagecheckerboard="0"
     inkscape:deskcolor="#d1d1d1"
     showgrid="false"
     inkscape:zoom="0.95113636"
     inkscape:cx="440.52569"
     inkscape:cy="440.52569"
     inkscape:window-width="1920"
     inkscape:window-height="1017"
     inkscape:window-x="-8"
     inkscape:window-y="-8"
     inkscape:window-maximized="1"
     inkscape:current-layer="g5545">
    <inkscape:page
       x="0"
       y="0"
       id="page5543"
       width="880"
       height="880" />
  </sodipodi:namedview>
  <g
     id="g5545"
     inkscape:groupmode="layer"
     inkscape:label="Page 1"
     transform="matrix(1.3333333,0,0,-1.3333333,0,880)">
    <g
       id="g5547">
      <g
         id="g5549"
         clip-path="url(#clipPath5553)">
        <g
           id="g5555"
           transform="translate(122.2871,172.6436)">
          <path
             d="m 0,0 h 457.284 c 9.477,0 17.23,-7.754 17.23,-17.232 0,-9.474 -7.753,-17.227 -17.23,-17.227 H 0 c -9.477,0 -17.23,7.753 -17.23,17.227 C -17.23,-7.754 -9.477,0 0,0"
             style="fill:#a7bf1c;fill-opacity:1;fill-rule:evenodd;stroke:none"
             id="path5557" />
        </g>
        <g
           id="g5559"
           transform="translate(408.8965,239.9502)">
          <path
             d="M 0,0 C 16.243,0 29.494,13.247 29.494,29.493 29.494,45.736 16.243,58.985 0,58.985 -16.245,58.985 -29.493,45.736 -29.493,29.493 -29.493,13.247 -16.245,0 0,0"
             style="fill:#ebb57f;fill-opacity:1;fill-rule:evenodd;stroke:none"
             id="path5561" />
        </g>
        <g
           id="g5563"
           transform="translate(358.3789,293.6777)">
          <path
             d="m 0,0 -51.246,-19.901 -42.78,73.922 53.728,21.61 z"
             style="fill:#ebb57f;fill-opacity:1;fill-rule:evenodd;stroke:none"
             id="path5565" />
        </g>
        <g
           id="g5567"
           transform="translate(303.2656,406.127)">
          <path
             d="m 0,0 24.719,-36.618 -58.872,-39.739 -24.718,36.618 C -85.159,-0.797 -26.286,38.94 0,0"
             style="fill:#4eba9f;fill-opacity:1;fill-rule:evenodd;stroke:none"
             id="path5569" />
        </g>
        <g
           id="g5571"
           transform="translate(334.4346,289.0537)">
          <path
             d="M 0,0 C 16.243,0 29.491,10.451 29.491,23.264 29.491,36.078 16.243,46.528 0,46.528 -16.245,46.528 -29.494,36.078 -29.494,23.264 -29.494,10.451 -16.245,0 0,0"
             style="fill:#ffcc99;fill-opacity:1;fill-rule:evenodd;stroke:none"
             id="path5573" />
        </g>
        <g
           id="g5575"
           transform="translate(151.1934,257.4785)">
          <path
             d="m 0,0 h 92.572 c 7.625,0 13.861,-6.237 13.861,-13.861 v -86.745 c 0,-7.623 -6.236,-13.863 -13.861,-13.863 h -49.2 c -31.478,0 -57.234,25.756 -57.234,57.235 v 43.373 C -13.862,-6.237 -7.625,0 0,0"
             style="fill:#ffbb00;fill-opacity:1;fill-rule:evenodd;stroke:none"
             id="path5577" />
        </g>
        <g
           id="g5579"
           transform="translate(324.9102,152.5986)">
          <path
             d="M 0,0 16.229,3.555 C 41.889,9.179 33.387,47.973 7.728,42.349 L -8.502,38.792 C -34.163,33.169 -25.661,-5.623 0,0"
             style="fill:#663300;fill-opacity:1;fill-rule:evenodd;stroke:none"
             id="path5581" />
        </g>
        <g
           id="g5583"
           transform="translate(270.4795,210.2891)">
          <path
             d="m 0,0 48.212,69.922 c 13.408,19.445 40.284,24.384 59.73,10.976 19.445,-13.407 24.386,-40.285 10.977,-59.729 L 70.708,-48.755 C 57.301,-68.199 30.423,-73.139 10.979,-59.732 l -10e-4,0.002 C -8.468,-46.322 -13.408,-19.446 0,0"
             style="fill:#e8a200;fill-opacity:1;fill-rule:evenodd;stroke:none"
             id="path5585" />
        </g>
        <g
           id="g5587"
           transform="translate(238.9844,445.6377)">
          <path
             d="m 0,0 v 0 c 37.973,-8.662 61.953,-46.815 53.291,-84.786 l -34.254,-150.178 -138.076,31.493 34.254,150.178 C -76.125,-15.321 -37.973,8.66 0,0"
             style="fill:#34a387;fill-opacity:1;fill-rule:evenodd;stroke:none"
             id="path5589" />
        </g>
        <g
           id="g5591"
           transform="translate(577.1377,442.8486)">
          <path
             d="m 0,0 -55.648,-135.615 c -1.769,-4.31 -6.74,-6.389 -11.05,-4.62 -4.308,1.768 -6.388,6.74 -4.619,11.048 L -15.669,6.429 c 1.769,4.309 6.739,6.388 11.05,4.62 C -0.312,9.281 1.769,4.31 0,0"
             style="fill:#808080;fill-opacity:1;fill-rule:evenodd;stroke:none"
             id="path5593" />
        </g>
        <g
           id="g5595"
           transform="translate(356.5273,302.0479)">
          <path
             d="m 0,0 h 146.588 c 4.657,0 8.467,-3.81 8.467,-8.469 0,-4.657 -3.81,-8.468 -8.467,-8.468 L 0,-16.937 c -4.66,0 -8.47,3.811 -8.47,8.468 C -8.47,-3.81 -4.66,0 0,0"
             style="fill:#999999;fill-opacity:1;fill-rule:evenodd;stroke:none"
             id="path5597" />
        </g>
        <g
           id="g5599"
           transform="translate(254.9082,302.0479)">
          <path
             d="m 0,0 h 146.587 c 4.658,0 8.47,-3.81 8.47,-8.469 0,-4.657 -3.812,-8.468 -8.47,-8.468 L 0,-16.937 c -4.658,0 -8.468,3.811 -8.468,8.468 C -8.468,-3.81 -4.658,0 0,0"
             style="fill:#cccccc;fill-opacity:1;fill-rule:evenodd;stroke:none"
             id="path5601" />
        </g>
        <g
           id="g5603"
           transform="translate(466.7275,455.0176)">
          <path
             d="M 0,0 103.185,-0.51 46.876,-153.034 -55.819,-152.97 Z"
             style="fill:#808080;fill-opacity:1;fill-rule:evenodd;stroke:none"
             id="path5605" />
        </g>
        <g
           id="g5607"
           transform="translate(474.1797,443.3457)">
          <path
             d="m 0,0 -55.646,-135.615 c -1.77,-4.311 -6.74,-6.388 -11.049,-4.62 -4.311,1.767 -6.388,6.739 -4.62,11.048 L -15.668,6.43 c 1.768,4.308 6.739,6.387 11.049,4.618 C -0.31,9.28 1.768,4.309 0,0"
             style="fill:#cccccc;fill-opacity:1;fill-rule:evenodd;stroke:none"
             id="path5609" />
        </g>
        <g
           id="g5611"
           transform="translate(218.3818,231.8438)">
          <path
             d="m 0,0 102.695,65.277 c 53.666,34.113 106.2,-46.395 52.536,-80.507 L 52.533,-80.508 C -1.129,-114.617 -53.664,-34.111 0,0"
             style="fill:#ffbb00;fill-opacity:1;fill-rule:evenodd;stroke:none"
             id="path5613" />
        </g>
        <g
           id="g5615"
           transform="translate(444.7588,158.9336)">
          <path
             d="m 0,0 -115.758,74.653 c -42.368,27.324 0.054,90.639 42.419,63.317 L 42.421,63.317 C 84.787,35.995 42.364,-27.323 0,0"
             style="fill:#ffbb00;fill-opacity:1;fill-rule:evenodd;stroke:none"
             id="path5617" />
        </g>
        <g
           id="g5619"
           transform="translate(231.752,552.4497)">
          <path
             d="m 0,0 h 91.106 v -72.27 c 0,-25.054 -20.499,-45.552 -45.551,-45.552 H 45.553 C 20.498,-117.822 0,-97.324 0,-72.27 Z"
             style="fill:#ffcc99;fill-opacity:1;fill-rule:evenodd;stroke:none"
             id="path5621" />
        </g>
        <g
           id="g5623"
           transform="translate(291.5537,465.0298)">
          <path
             d="m 0,0 -30.368,-43.766 c -8.363,-12.051 -44.577,12.952 -36.216,25.004 l 30.369,43.767 z"
             style="fill:#ffcc99;fill-opacity:1;fill-rule:evenodd;stroke:none"
             id="path5625" />
        </g>
        <g
           id="g5627"
           transform="translate(493.5811,148.2676)">
          <path
             d="m 0,0 c 14.958,0 27.157,12.198 27.157,27.155 0,14.958 -12.199,27.158 -27.157,27.158 -14.956,0 -27.155,-12.2 -27.155,-27.158 C -27.155,12.198 -14.956,0 0,0"
             style="fill:#663300;fill-opacity:1;fill-rule:evenodd;stroke:none"
             id="path5629" />
        </g>
        <g
           id="g5631"
           transform="translate(498.4814,201.7529)">
          <path
             d="m 0,0 57.849,-12.676 c 11.152,-2.445 18.275,-13.566 15.833,-24.72 v -10e-4 C 71.236,-48.55 60.113,-55.673 48.961,-53.23 l -57.847,12.676 c -11.153,2.445 -18.276,13.567 -15.834,24.72 h 0.002 C -22.274,-4.68 -11.151,2.445 0,0"
             style="fill:#663300;fill-opacity:1;fill-rule:evenodd;stroke:none"
             id="path5633" />
        </g>
        <g
           id="g5635"
           transform="translate(220.3418,399.5361)">
          <path
             d="m 0,0 -9.824,-43.073 -69.252,15.794 9.825,43.073 C -58.803,61.602 10.446,45.805 0,0"
             style="fill:#4eba9f;fill-opacity:1;fill-rule:evenodd;stroke:none"
             id="path5637" />
        </g>
        <g
           id="g5639"
           transform="translate(199.4697,359.0322)">
          <path
             d="M 0,0 -1.889,-7.978 C -5.317,-22.467 5.713,-35.799 20.637,-34.96 l 98.636,5.548 -1.783,-27.684 c -34.545,-9.893 -93.184,-35.709 -126.378,-21.34 -10.072,4.363 -18.945,10.982 -26.244,19.697 -14.69,17.537 -19.975,39.663 -14.704,61.931 l 1.888,7.977 z"
             style="fill:#ffcc99;fill-opacity:1;fill-rule:evenodd;stroke:none"
             id="path5641" />
        </g>
        <g
           id="g5643"
           transform="translate(322.8584,516.3154)">
          <path
             d="M 0,0 C -1.399,9.497 -2.796,18.994 -4.195,28.491 -13.233,13.948 -27.742,13.09 -43.033,14.183 c -14.774,2.224 -18.416,-7.481 -11.39,-28.617 -20.189,19.368 -27.891,12.948 -23.942,-17.521 -4.049,-3.837 -8.099,-7.674 -12.148,-11.513 -25.193,79.875 -23.691,112.294 0.175,104.956 37.704,22.327 70.839,18.537 103.079,9.637 C 8.494,47.416 4.247,23.708 0,0"
             style="fill:#333333;fill-opacity:1;fill-rule:evenodd;stroke:none"
             id="path5645" />
        </g>
        <g
           id="g5647"
           transform="translate(289.0703,483.9844)">
          <path
             d="m 0,0 c 4.183,0 7.591,4.657 7.591,10.367 0,5.709 -3.408,10.366 -7.591,10.366 -4.183,0 -7.593,-4.657 -7.593,-10.366 C -7.593,4.657 -4.183,0 0,0"
             style="fill:#333333;fill-opacity:1;fill-rule:evenodd;stroke:none"
             id="path5649" />
        </g>
        <g
           id="g5651"
           transform="translate(317.248,483.9844)">
          <path
             d="m 0,0 c 2.092,0 3.797,4.657 3.797,10.367 0,5.709 -1.705,10.366 -3.797,10.366 -2.091,0 -3.794,-4.657 -3.794,-10.366 C -3.794,4.657 -2.091,0 0,0"
             style="fill:#333333;fill-opacity:1;fill-rule:evenodd;stroke:none"
             id="path5653" />
        </g>
        <g
           id="g5655"
           transform="translate(310.6328,458.5186)">
          <path
             d="M 0,0 C -8.98,-15.592 -20.022,-14.197 -32.121,-4.088 -21.414,-2.726 -10.707,-1.362 0,0"
             style="fill:#ffffff;fill-opacity:1;fill-rule:evenodd;stroke:none"
             id="path5657" />
        </g>
      </g>
    </g>
  </g>
</svg>
